<?xml version="1.0" standalone="no"?>
<!DOCTYPE svg PUBLIC "-//W3C//DTD SVG 20010904//EN"
 "http://www.w3.org/TR/2001/REC-SVG-20010904/DTD/svg10.dtd">
<svg version="1.0" xmlns="http://www.w3.org/2000/svg"
 width="225.000000pt" height="225.000000pt" viewBox="0 0 225.000000 225.000000"
 preserveAspectRatio="xMidYMid meet">
<metadata>
Created by potrace 1.11, written by Peter Selinger 2001-2013
</metadata>
<g transform="translate(0.000000,225.000000) scale(0.100000,-0.100000)"
fill="#000000" stroke="none">
<path d="M1130 2148 c0 -14 -5 -15 -32 -7 -40 11 -51 11 -45 2 3 -5 -25 -8
-62 -8 -36 0 -78 -6 -93 -13 -15 -7 -32 -11 -37 -8 -5 4 -13 1 -17 -5 -4 -8
-9 -7 -15 2 -7 11 -9 10 -9 -3 0 -11 -5 -15 -15 -12 -9 4 -15 1 -15 -7 0 -10
-3 -10 -11 -2 -9 9 -15 8 -25 -2 -8 -8 -23 -12 -34 -10 -11 2 -19 -1 -17 -8 1
-7 -4 -11 -12 -9 -8 2 -17 -2 -21 -8 -4 -6 -16 -12 -28 -13 -11 0 -18 -5 -16
-9 3 -4 -4 -8 -15 -8 -12 0 -21 -5 -21 -11 0 -5 -4 -7 -10 -4 -5 3 -10 1 -10
-4 0 -6 -6 -10 -12 -9 -7 2 -12 -3 -10 -10 1 -6 -1 -11 -5 -10 -5 1 -18 -3
-29 -10 -12 -6 -25 -8 -29 -4 -5 4 -6 3 -3 -3 3 -5 0 -16 -8 -23 -8 -7 -14 -9
-14 -5 0 4 -5 0 -11 -9 -5 -10 -15 -18 -20 -18 -16 0 -39 -27 -31 -35 4 -5 1
-5 -5 -1 -8 4 -27 -8 -48 -29 -22 -23 -39 -34 -47 -29 -10 6 -11 5 -1 -7 11
-13 9 -18 -12 -29 -14 -7 -25 -19 -25 -27 0 -7 -4 -13 -10 -13 -5 0 -9 -6 -7
-12 1 -7 -4 -12 -10 -11 -7 2 -13 0 -12 -5 2 -14 -13 -52 -20 -48 -3 2 -11 -7
-18 -20 -8 -18 -8 -23 0 -18 7 3 1 -4 -13 -16 -14 -12 -19 -19 -13 -15 9 4 11
1 7 -9 -3 -9 -11 -13 -16 -9 -7 4 -9 -4 -6 -20 3 -15 1 -24 -3 -21 -5 3 -9 0
-9 -6 0 -6 -4 -8 -10 -5 -6 4 -7 -1 -3 -11 4 -11 3 -15 -5 -10 -6 3 -13 2 -16
-3 -4 -5 -1 -13 5 -17 8 -5 9 -3 4 6 -5 9 -4 11 4 6 8 -6 9 -12 2 -20 -6 -7
-8 -16 -4 -19 3 -4 2 -7 -4 -7 -6 0 -14 -7 -17 -16 -3 -8 -2 -12 4 -9 6 3 7
-1 4 -9 -3 -9 -11 -16 -18 -16 -6 0 -4 -5 4 -10 8 -5 10 -10 4 -10 -6 0 -11
-6 -12 -12 -2 -32 -12 -79 -17 -88 -3 -6 -1 -10 6 -10 7 0 8 -4 2 -12 -5 -7
-9 -34 -9 -61 1 -26 -3 -47 -9 -47 -5 0 -5 -4 2 -8 6 -4 10 -20 9 -35 -2 -15
0 -30 4 -32 8 -5 5 -53 -4 -63 -3 -3 1 -14 11 -24 15 -17 15 -18 -3 -19 -15 0
-16 -2 -4 -7 17 -8 21 -63 5 -74 -5 -4 -1 -8 10 -8 17 0 17 -2 5 -10 -8 -5
-10 -10 -4 -10 7 0 15 -7 18 -16 3 -8 2 -12 -4 -9 -6 3 -7 -1 -4 -9 3 -9 11
-16 16 -16 6 0 8 -11 6 -25 -3 -14 -1 -28 5 -32 6 -4 7 -1 2 7 -5 9 -4 11 3 6
7 -4 12 -18 12 -32 0 -13 5 -24 11 -24 5 0 7 -4 4 -10 -3 -5 -1 -10 6 -10 8 0
8 -4 -1 -15 -11 -13 -10 -14 5 -8 15 5 17 3 12 -11 -4 -9 -3 -15 2 -12 5 3 12
-1 15 -10 4 -10 2 -13 -6 -8 -7 4 -8 3 -4 -4 4 -7 15 -12 24 -12 15 0 15 -2 2
-10 -10 -6 -11 -10 -2 -10 6 0 12 -10 12 -21 0 -18 2 -20 16 -9 8 8 14 9 13 4
-3 -18 13 -54 22 -48 5 3 6 -2 3 -10 -4 -9 -1 -16 6 -16 7 0 10 -7 6 -17 -6
-14 -3 -14 15 3 22 19 22 19 15 -3 -5 -15 -3 -23 4 -23 6 0 18 -6 26 -14 11
-11 11 -16 1 -19 -6 -3 -2 -6 10 -6 12 -1 24 -9 28 -21 3 -11 11 -20 16 -20 6
0 7 5 3 12 -4 7 -3 8 5 4 9 -6 9 -11 -1 -24 -10 -12 -10 -14 -1 -8 9 5 13 1
14 -11 0 -10 3 -13 6 -6 3 10 7 10 18 0 7 -7 10 -16 7 -21 -3 -5 3 -6 13 -2
15 5 16 4 5 -9 -10 -12 -10 -15 4 -15 19 0 29 -9 64 -54 12 -16 22 -24 22 -17
0 6 7 11 16 11 8 0 12 -4 9 -10 -3 -5 -1 -10 5 -10 6 0 8 -4 5 -10 -3 -5 0 -7
8 -4 8 3 18 0 22 -6 5 -8 11 -8 21 1 11 9 14 8 14 -7 0 -14 2 -16 9 -6 7 11 9
11 14 -1 3 -10 14 -13 31 -10 14 3 26 1 26 -5 0 -5 7 -13 16 -16 15 -6 15 -4
3 10 -13 16 -12 16 9 5 12 -7 20 -16 18 -20 -3 -4 1 -8 9 -8 8 0 12 4 9 9 -3
4 -1 8 4 8 5 0 14 -10 21 -23 l12 -22 -5 22 c-3 19 -1 20 14 10 10 -6 17 -14
14 -18 -7 -12 23 -4 40 10 13 11 15 10 11 -9 -4 -21 -3 -22 14 -6 18 16 56 12
45 -5 -3 -5 2 -6 10 -3 10 4 16 1 16 -7 1 -8 7 -3 15 11 l13 25 8 -30 c6 -26
8 -27 15 -10 5 13 8 15 8 5 1 -13 2 -13 11 0 6 10 10 11 10 3 0 -7 7 -13 16
-13 8 0 12 5 9 10 -3 6 -1 10 4 10 6 0 11 -4 11 -10 0 -5 5 -10 11 -10 5 0 7
6 3 13 -6 9 -4 9 8 -1 13 -10 18 -10 24 -1 5 8 3 9 -6 4 -9 -5 -11 -4 -6 4 4
6 12 9 17 5 5 -3 7 -10 4 -15 -4 -5 -2 -9 4 -9 5 0 12 6 14 13 4 9 6 9 6 0 1
-7 6 -13 12 -13 5 0 7 5 3 12 -4 6 -3 8 4 4 5 -3 12 -3 15 1 2 5 2 2 1 -5 -5
-18 16 -15 23 4 5 14 8 13 18 -6 8 -15 15 -19 19 -11 4 6 1 11 -6 12 -7 0 -4
4 7 8 24 10 47 3 39 -11 -3 -5 3 -4 14 3 12 7 19 16 17 19 -2 4 2 7 10 7 12 0
12 -4 -2 -19 -13 -15 -14 -19 -3 -16 8 2 23 12 33 23 10 11 16 15 13 9 -3 -7
2 -18 11 -25 14 -12 16 -12 8 0 -6 11 -4 13 8 8 9 -3 19 -1 23 5 5 7 2 8 -7 3
-12 -7 -12 -5 -1 6 9 9 15 10 20 3 10 -15 51 -13 45 3 -4 9 0 11 13 6 13 -5
15 -3 9 8 -7 11 -5 11 10 -1 11 -9 16 -10 11 -2 -6 11 11 17 37 13 4 -1 12 10
17 24 5 14 12 25 15 25 4 0 4 -4 1 -8 -3 -5 1 -9 8 -9 9 0 12 7 8 15 -4 11 -1
14 10 9 22 -8 30 3 15 21 -8 11 -8 14 0 9 7 -4 19 2 29 15 10 15 14 17 11 6
-4 -10 -1 -20 6 -24 7 -4 8 -3 4 1 -4 5 3 15 15 23 13 7 15 11 6 8 -10 -3 -18
-1 -18 4 0 6 6 10 13 10 8 0 20 11 27 25 8 16 19 24 28 20 10 -3 12 0 8 10 -3
8 -1 15 4 15 6 0 10 -6 10 -12 1 -7 8 -1 16 15 8 15 12 33 9 40 -4 6 0 4 8 -5
19 -24 26 -23 21 4 -2 13 -2 17 2 11 8 -17 27 -17 21 0 -3 8 3 20 13 27 11 8
16 18 13 24 -3 6 -3 8 2 4 4 -4 14 0 22 10 12 16 13 15 6 -3 -3 -11 -3 -17 1
-14 4 4 9 17 11 29 3 13 10 28 16 34 9 8 10 8 6 0 -3 -6 0 -11 8 -11 8 0 12 4
9 9 -3 5 0 15 6 23 6 8 9 19 5 26 -5 8 0 9 16 4 23 -7 24 -7 4 9 -17 13 -18
15 -3 16 9 0 20 5 24 12 4 7 3 8 -4 4 -8 -5 -10 -2 -6 8 3 9 9 14 12 13 4 -1
8 2 9 7 0 5 9 14 18 19 13 7 14 11 5 17 -9 6 -6 10 9 15 21 6 29 25 11 25 -5
0 -10 -4 -10 -10 0 -5 -5 -10 -11 -10 -8 0 -8 4 1 15 6 8 8 20 4 27 -5 8 -1 8
11 -2 10 -8 16 -10 12 -3 -4 6 1 19 10 29 16 16 16 16 -7 9 l-25 -7 25 18 c14
11 29 18 33 16 5 -1 6 2 2 7 -3 6 -11 9 -18 7 -7 -1 -9 -1 -4 1 4 3 7 11 7 19
0 10 -5 12 -12 8 -9 -5 -9 -2 1 9 15 19 26 23 15 5 -4 -6 -3 -8 4 -5 13 9 10
30 -8 53 -14 17 -13 18 1 6 14 -10 18 -10 24 5 13 28 14 44 4 37 -5 -3 -7 -9
-4 -14 3 -5 1 -11 -4 -15 -6 -3 -8 4 -6 16 3 13 10 26 17 31 10 6 10 8 1 8 -7
0 -13 5 -13 11 0 5 5 7 10 4 6 -3 10 -1 10 4 0 6 -6 11 -12 11 -8 0 -9 3 -3 8
15 11 17 32 2 32 -8 0 -7 3 3 9 8 6 18 7 24 4 5 -3 6 -1 2 5 -4 6 -12 9 -19 6
-8 -3 -12 9 -13 40 0 25 4 42 8 40 17 -11 7 9 -14 28 -13 11 -17 17 -10 13 7
-4 12 0 12 10 0 10 5 13 13 9 8 -5 8 -2 -2 9 -16 20 -25 23 -15 5 4 -7 3 -10
-1 -5 -11 10 -14 68 -3 61 4 -3 8 0 8 5 0 6 -4 11 -9 11 -5 0 -11 7 -14 14 -4
11 -1 13 10 9 15 -6 15 -5 1 16 -9 12 -14 31 -11 42 3 10 0 19 -6 19 -6 0 -11
5 -11 11 0 5 5 7 12 3 7 -4 8 -3 4 5 -5 8 -12 9 -20 2 -8 -7 -12 -5 -12 9 0
10 4 16 8 14 4 -3 8 0 8 5 0 6 -4 11 -9 11 -5 0 -12 7 -15 16 -3 8 -2 12 4 9
15 -9 12 11 -3 27 -11 11 -11 16 -2 25 7 7 16 9 21 5 4 -4 4 -1 0 6 -5 9 -12
9 -26 2 -16 -8 -18 -8 -14 5 4 8 1 15 -6 15 -8 0 -11 9 -8 25 4 17 1 25 -8 25
-8 0 -14 5 -14 11 0 5 -4 8 -9 5 -4 -3 -7 6 -5 19 1 14 -2 25 -7 25 -5 0 -19
10 -31 22 -16 16 -17 20 -5 15 29 -11 19 7 -14 26 -26 15 -29 20 -18 33 10 13
9 16 -9 21 -14 3 -22 13 -22 27 0 18 -2 19 -11 6 -9 -12 -10 -11 -6 7 4 16 1
20 -11 16 -12 -5 -14 -2 -9 12 6 15 5 16 -8 5 -13 -11 -16 -11 -13 1 2 8 -3
13 -9 11 -7 -1 -13 2 -13 8 0 5 -10 10 -22 10 -12 0 -19 3 -15 6 7 8 -17 34
-32 34 -6 0 -11 5 -11 10 0 6 -6 10 -14 10 -7 0 -26 12 -41 28 -16 15 -25 21
-21 15 5 -9 2 -11 -8 -7 -9 3 -16 10 -16 15 0 5 -7 9 -15 9 -8 0 -15 4 -15 8
0 4 -10 8 -22 9 -11 1 -24 7 -28 14 -4 6 -12 9 -18 5 -6 -3 -14 -1 -19 6 -4 7
-14 13 -20 14 -7 1 -22 2 -34 3 -11 0 -18 5 -14 10 3 6 -4 8 -15 6 -11 -2 -24
3 -30 13 -7 13 -9 14 -10 3 0 -11 -4 -10 -16 5 -8 10 -12 12 -8 4 7 -13 5 -13
-9 -2 -9 8 -21 11 -26 8 -5 -4 -13 -1 -17 5 -5 8 -3 9 6 4 9 -5 11 -4 6 3 -4
7 -15 8 -30 2 -16 -6 -30 -4 -43 5 -12 8 -25 10 -33 5 -9 -5 -20 -5 -27 2 -7
6 -13 7 -13 4 0 -4 -9 -2 -20 4 -15 8 -20 8 -20 -2 -1 -8 -7 -5 -15 6 -13 17
-15 17 -15 4z m1020 -1132 c0 -3 -4 -8 -10 -11 -5 -3 -10 -1 -10 4 0 6 5 11
10 11 6 0 10 -2 10 -4z m-155 -485 c-9 -8 -36 -10 -30 -2 2 4 11 8 20 8 8 0
13 -3 10 -6z m-1443 -295 c7 4 8 2 4 -5 -9 -14 -36 3 -36 23 0 6 5 3 11 -7 6
-9 15 -14 21 -11z m78 -46 c0 -5 -2 -10 -4 -10 -3 0 -8 5 -11 10 -3 6 -1 10 4
10 6 0 11 -4 11 -10z"/>
<path d="M1947 1739 c7 -7 15 -10 18 -7 3 3 -2 9 -12 12 -14 6 -15 5 -6 -5z"/>
<path d="M2067 1576 c-4 -10 -1 -13 8 -9 8 3 12 9 9 14 -7 12 -11 11 -17 -5z"/>
<path d="M2160 1110 c0 -5 5 -10 11 -10 5 0 7 5 4 10 -3 6 -8 10 -11 10 -2 0
-4 -4 -4 -10z"/>
<path d="M1770 289 c0 -5 5 -7 10 -4 6 3 10 8 10 11 0 2 -4 4 -10 4 -5 0 -10
-5 -10 -11z"/>
<path d="M935 100 c3 -5 8 -10 11 -10 2 0 4 5 4 10 0 6 -5 10 -11 10 -5 0 -7
-4 -4 -10z"/>
</g>
</svg>
