<?xml version="1.0" standalone="no"?>
<!DOCTYPE svg PUBLIC "-//W3C//DTD SVG 20010904//EN"
 "http://www.w3.org/TR/2001/REC-SVG-20010904/DTD/svg10.dtd">
<svg version="1.0" xmlns="http://www.w3.org/2000/svg"
 width="883.000000pt" height="883.000000pt" viewBox="0 0 883.000000 883.000000"
 preserveAspectRatio="xMidYMid meet">
<metadata>
Created by potrace 1.11, written by Peter Selinger 2001-2013
</metadata>
<g transform="translate(0.000000,883.000000) scale(0.100000,-0.100000)"
fill="#000000" stroke="none">
<path d="M856 8393 c-1 -2 -45 -5 -97 -9 -52 -3 -103 -7 -114 -9 -11 -1 -32
-3 -47 -4 -20 -1 -28 -6 -28 -20 0 -11 3 -21 8 -23 4 -1 23 -28 42 -58 19 -30
37 -57 40 -60 4 -3 9 -12 13 -20 4 -8 17 -31 29 -51 25 -41 87 -141 103 -167
102 -171 125 -210 125 -220 0 -5 4 -12 8 -14 7 -3 144 -265 140 -271 0 -1 13
-33 30 -70 18 -38 32 -73 32 -78 0 -5 5 -17 10 -27 26 -44 148 -389 151 -427
1 -5 5 -17 10 -26 4 -9 10 -27 12 -40 3 -13 12 -49 21 -79 9 -30 19 -71 22
-90 3 -19 9 -51 14 -70 5 -19 12 -51 15 -70 3 -19 8 -42 10 -50 6 -23 19 -125
31 -250 17 -180 3 -372 -33 -443 -8 -16 -16 -39 -19 -50 -2 -12 -13 -34 -24
-49 -11 -15 -20 -30 -20 -34 0 -4 -38 -57 -85 -119 -47 -62 -85 -116 -85 -121
0 -4 -6 -15 -14 -23 -33 -39 -138 -267 -151 -329 -2 -9 -13 -55 -24 -102 -38
-160 -45 -391 -16 -555 30 -166 48 -242 91 -371 54 -165 177 -452 251 -587 24
-42 43 -81 43 -85 0 -5 8 -17 18 -28 9 -11 26 -35 36 -54 18 -32 81 -123 123
-178 96 -123 278 -286 418 -374 99 -62 302 -168 322 -168 7 0 -6 35 -32 86
-25 48 -45 92 -45 99 0 7 -3 15 -8 17 -4 2 -23 35 -41 73 -19 39 -60 123 -92
189 -109 221 -116 262 -56 317 31 28 47 33 97 29 30 -2 156 -77 207 -122 43
-39 153 -186 153 -205 0 -7 4 -13 9 -13 5 0 11 -8 15 -17 3 -10 19 -40 36 -68
47 -79 175 -342 210 -430 17 -44 35 -89 39 -100 5 -11 19 -47 31 -80 12 -33
26 -68 31 -77 5 -10 9 -27 9 -37 0 -11 5 -23 10 -26 6 -4 8 -10 5 -15 -3 -5
-1 -11 5 -15 5 -3 10 -16 10 -29 0 -12 3 -26 8 -30 4 -4 7 -11 7 -14 1 -4 16
-54 33 -112 37 -120 42 -134 118 -400 72 -252 82 -291 86 -323 2 -14 7 -29 11
-33 4 -4 7 -19 7 -34 0 -49 42 -194 76 -268 47 -97 112 -161 255 -250 64 -40
121 -72 127 -72 6 0 12 -3 14 -7 3 -8 85 -49 398 -201 236 -115 246 -119 300
-117 52 2 220 53 220 67 0 5 4 7 8 4 5 -3 68 24 141 59 72 35 134 64 138 64 3
-1 9 3 12 8 3 5 44 29 91 53 47 24 87 47 88 52 2 4 10 8 18 8 13 0 72 35 257
153 26 17 47 34 47 39 0 4 6 8 13 8 17 1 72 76 97 134 25 60 54 166 85 311 13
61 28 130 34 155 7 25 14 56 17 70 3 14 12 48 20 76 8 28 17 60 19 70 2 11 9
37 15 59 6 22 13 48 15 58 22 94 149 526 165 562 12 25 39 104 45 126 3 14 57
150 84 214 68 157 201 393 306 541 57 81 134 158 181 182 78 40 187 11 225
-60 22 -42 5 -110 -51 -204 -30 -49 -67 -116 -83 -149 -15 -33 -32 -67 -37
-75 -32 -54 -149 -295 -145 -298 2 -3 10 0 17 5 7 6 71 41 142 78 336 175 466
282 640 526 95 135 128 189 209 349 51 101 157 356 157 379 0 6 4 19 10 29 13
24 100 342 98 362 0 3 1 7 2 10 3 10 21 96 35 170 3 14 7 35 9 47 3 11 8 43
12 70 3 26 8 57 10 68 21 116 21 190 -1 278 -23 94 -70 179 -188 342 -217 300
-304 541 -311 855 -3 128 10 289 29 380 4 14 8 36 10 50 2 14 7 36 10 50 3 14
8 34 10 45 3 11 7 29 9 40 3 11 19 67 36 125 17 58 32 110 33 115 32 113 146
417 209 554 42 92 127 261 182 360 25 46 46 87 46 92 0 5 4 9 9 9 5 0 13 10
17 22 3 12 10 26 15 32 5 6 44 65 87 131 43 66 101 152 129 190 53 76 53 89
-2 91 -16 0 -82 4 -145 9 -94 7 -217 9 -372 5 -10 0 -24 0 -30 1 -32 2 -242
-20 -337 -36 -13 -2 -45 -8 -70 -12 -53 -8 -47 -7 -86 -16 -36 -9 -72 -16
-105 -23 -14 -2 -32 -7 -40 -11 -8 -3 -24 -8 -35 -10 -11 -2 -51 -13 -90 -25
-38 -12 -73 -23 -77 -24 -5 -1 -9 -2 -10 -3 -2 -2 -14 -5 -28 -7 -13 -3 -29
-9 -34 -14 -6 -6 -17 -10 -25 -10 -14 0 -138 -46 -211 -79 -19 -8 -37 -16 -40
-16 -58 -15 -396 -189 -592 -306 -54 -33 -103 -59 -108 -59 -6 0 -10 -4 -10
-9 0 -12 -95 -44 -140 -46 -55 -3 -117 20 -220 81 -82 49 -155 86 -295 149
-41 18 -232 75 -275 81 -19 3 -43 7 -53 10 -32 10 -183 25 -252 25 -37 0 -197
-11 -230 -16 -60 -10 -217 -45 -227 -51 -4 -3 -18 -7 -31 -9 -33 -7 -225 -83
-282 -113 -27 -14 -95 -52 -150 -84 -117 -67 -182 -85 -247 -68 -39 11 -155
66 -168 80 -13 14 -246 146 -330 187 -30 14 -56 30 -58 35 -2 4 -8 8 -13 8 -5
0 -42 15 -82 34 -148 70 -214 98 -337 143 -103 38 -271 92 -309 99 -14 3 -28
7 -33 10 -5 3 -20 7 -34 10 -14 3 -56 12 -93 20 -36 9 -77 18 -91 20 -93 17
-141 24 -185 29 -27 3 -61 8 -75 10 -68 12 -475 26 -484 18z m6559 -320 c23
-22 9 -84 -39 -173 -26 -47 -53 -102 -62 -122 -9 -21 -20 -38 -25 -38 -5 0 -9
-5 -9 -11 0 -6 -15 -43 -34 -82 -31 -66 -45 -98 -96 -212 -30 -68 -51 -119
-55 -135 -3 -8 -23 -65 -45 -127 -36 -101 -123 -389 -134 -445 -2 -13 -9 -43
-15 -68 -13 -57 -18 -85 -45 -244 -17 -104 -24 -127 -34 -115 -6 8 -30 34 -52
59 -22 25 -40 50 -40 57 0 6 -4 13 -8 15 -4 2 -55 59 -113 128 -186 223 -237
279 -444 485 -175 175 -236 230 -308 278 -62 41 -102 82 -117 117 -7 17 -11
32 -9 34 2 2 65 39 139 82 227 130 505 260 757 353 66 24 291 92 353 106 58
13 178 38 195 40 11 1 20 3 20 5 0 1 15 4 33 7 19 2 44 8 55 13 32 13 117 9
132 -7z m-6035 -27 c153 -11 229 -20 320 -41 14 -3 36 -7 50 -10 30 -6 186
-56 255 -83 126 -48 276 -119 495 -234 41 -22 102 -54 135 -71 33 -17 62 -34
65 -37 3 -3 22 -14 43 -24 20 -9 56 -34 78 -56 37 -35 39 -40 28 -62 -15 -28
-77 -85 -101 -94 -10 -3 -18 -9 -18 -14 0 -5 -9 -12 -21 -15 -21 -7 -347 -330
-489 -485 -47 -51 -94 -102 -105 -114 -45 -47 -216 -257 -285 -349 -40 -54
-74 -97 -75 -95 -2 2 -6 35 -10 73 -6 64 -11 103 -19 145 -10 53 -20 126 -18
133 1 4 -3 7 -9 7 -5 0 -7 4 -4 10 6 10 -37 196 -76 325 -11 39 -22 77 -24 85
-2 8 -4 15 -5 15 -1 0 -3 7 -5 15 -11 49 -114 320 -127 334 -4 6 -8 16 -8 22
0 15 -69 164 -155 334 -97 193 -119 233 -133 248 -17 19 -11 35 16 37 12 1 24
4 27 6 5 5 28 5 175 -5z m3080 -329 c8 -2 33 -7 55 -11 129 -25 321 -101 484
-193 51 -29 97 -53 102 -53 5 0 9 -4 9 -10 0 -5 5 -10 11 -10 6 0 30 -13 54
-30 24 -16 48 -30 54 -30 6 0 11 -4 11 -10 0 -5 6 -10 14 -10 8 0 16 -3 18 -7
5 -11 97 -73 108 -73 6 0 10 -4 10 -10 0 -5 7 -10 15 -10 8 0 15 -4 15 -8 0
-4 13 -16 30 -25 34 -20 230 -166 276 -206 16 -14 56 -48 89 -76 80 -69 317
-304 395 -394 36 -41 70 -79 75 -85 6 -6 38 -45 70 -86 33 -41 62 -77 65 -80
16 -14 217 -293 260 -360 6 -8 32 -48 60 -88 27 -41 50 -75 50 -77 0 -2 32
-53 70 -114 39 -62 70 -116 70 -121 0 -6 5 -10 10 -10 6 0 10 -4 10 -9 0 -12
101 -173 115 -183 7 -5 7 -8 0 -8 -7 0 -7 -3 0 -8 15 -11 94 -144 148 -248 26
-51 63 -141 83 -200 33 -99 37 -118 35 -204 -3 -133 -5 -160 -11 -160 -3 0 -5
-12 -4 -27 1 -27 -10 -86 -43 -228 -9 -38 -16 -71 -14 -73 1 -1 -6 -16 -14
-32 -9 -17 -13 -30 -10 -30 3 0 -1 -13 -10 -30 -8 -16 -15 -31 -14 -32 5 -7
-81 -233 -126 -333 -106 -233 -113 -245 -148 -245 -18 0 -66 29 -97 59 -41 40
-137 90 -205 107 -188 45 -450 -78 -641 -301 -87 -102 -215 -305 -279 -442
-11 -24 -23 -43 -27 -43 -5 0 -8 -4 -8 -9 0 -6 -26 -65 -59 -133 -79 -164
-215 -500 -225 -553 -1 -5 -7 -23 -13 -40 -22 -57 -86 -267 -97 -320 -2 -5 -9
-30 -16 -55 -7 -25 -14 -52 -16 -60 -1 -8 -7 -33 -13 -55 -6 -22 -13 -54 -16
-71 -2 -17 -9 -43 -14 -57 -5 -14 -12 -42 -16 -64 -6 -40 -8 -54 -27 -138 -10
-46 -16 -114 -17 -191 -2 -66 -81 -110 -143 -78 -15 8 -28 11 -28 7 0 -4 -13
11 -29 33 -36 49 -74 187 -73 264 1 46 11 151 16 168 4 15 13 64 22 127 1 11
3 20 4 20 1 0 3 16 5 35 2 19 6 49 9 65 7 37 13 69 20 115 7 45 14 83 26 145
5 28 12 67 16 89 3 21 8 48 11 60 2 11 6 32 7 46 2 14 6 34 9 45 3 11 8 36 11
55 3 19 8 46 11 60 3 14 10 50 16 80 5 30 12 65 15 78 2 12 6 32 8 45 3 12 10
47 16 77 6 30 14 66 16 80 3 14 10 45 15 70 11 44 15 66 23 105 3 11 12 52 21
90 9 39 19 81 21 95 3 14 14 59 24 100 10 41 21 86 24 100 14 68 49 187 63
214 63 123 126 152 333 154 69 1 136 4 150 7 14 3 41 9 60 12 19 3 47 12 63
20 15 7 27 11 27 8 0 -9 113 56 154 88 67 53 146 143 146 166 0 6 4 11 9 11
11 0 62 114 94 211 81 242 159 383 264 479 l47 44 -28 50 c-15 27 -40 68 -54
90 -15 23 -27 43 -27 46 -2 14 -329 508 -368 555 -8 11 -52 66 -95 123 -44 57
-91 116 -104 130 -13 15 -32 38 -42 52 l-18 25 7 -35 c4 -19 12 -41 17 -47 6
-7 7 -13 3 -13 -4 0 -2 -7 5 -15 7 -8 10 -15 7 -15 -5 0 76 -217 119 -319 11
-25 61 -130 112 -234 91 -187 116 -254 105 -286 -10 -29 -54 -81 -68 -81 -7 0
-15 -3 -17 -7 -3 -9 -66 -40 -148 -74 -72 -30 -301 -147 -321 -165 -8 -8 -23
-14 -31 -14 -9 0 -18 -4 -20 -8 -1 -5 -37 -30 -78 -57 -132 -85 -282 -206
-400 -325 -112 -112 -250 -278 -250 -299 0 -6 -5 -11 -10 -11 -6 0 -16 -12
-23 -27 -32 -72 -92 -166 -122 -189 -35 -26 -60 -27 -115 -3 -35 16 -80 83
-81 124 -4 85 3 140 25 221 18 66 21 72 86 141 30 32 72 80 93 105 21 26 43
53 50 60 7 7 35 40 62 73 28 33 55 65 60 71 10 11 62 73 105 124 12 14 31 36
43 50 12 14 47 54 77 90 30 36 65 76 77 90 47 54 66 77 103 120 80 94 187 217
215 245 32 33 100 118 119 146 23 36 29 64 28 129 -1 56 -34 132 -143 330 -23
41 -64 118 -92 170 -28 52 -61 112 -74 133 -13 20 -21 37 -17 37 3 0 -3 12
-14 28 -10 15 -25 41 -34 57 -8 17 -28 55 -45 85 -16 30 -56 105 -88 165 -32
61 -66 124 -75 140 -10 17 -46 84 -80 150 -35 66 -66 125 -70 130 -4 6 -26 46
-49 90 -146 280 -175 322 -275 393 l-46 33 10 -28 c6 -15 15 -37 20 -48 5 -11
23 -56 41 -100 17 -44 37 -93 44 -110 6 -16 27 -68 44 -115 18 -47 39 -97 47
-112 8 -14 14 -31 14 -37 0 -6 9 -30 19 -54 11 -23 24 -59 31 -79 6 -21 16
-40 21 -43 5 -4 9 -13 9 -21 0 -8 8 -33 19 -57 10 -23 107 -264 216 -536 135
-339 198 -511 202 -545 6 -66 -9 -89 -153 -243 -138 -146 -150 -159 -249 -268
-44 -48 -96 -105 -115 -125 -19 -20 -64 -70 -100 -111 -36 -40 -79 -88 -96
-106 -17 -18 -50 -55 -74 -82 -23 -28 -59 -68 -79 -89 -20 -22 -67 -74 -105
-116 -83 -93 -114 -105 -166 -68 -19 14 -77 73 -128 131 -107 122 -136 155
-241 270 -154 170 -177 195 -224 245 -27 28 -75 80 -107 116 -32 36 -109 117
-170 180 -206 213 -207 223 -72 547 29 67 53 127 54 135 2 7 5 15 8 18 3 3 25
55 48 115 24 61 50 124 57 140 7 17 43 107 79 200 37 94 71 179 76 190 9 20
21 52 100 260 23 61 46 119 51 130 10 24 31 76 35 90 20 65 45 169 50 204 l6
44 -39 -29 c-65 -48 -72 -59 -164 -239 -23 -44 -63 -120 -90 -170 -27 -49 -70
-133 -96 -185 -27 -52 -51 -97 -54 -100 -3 -3 -37 -66 -76 -140 -39 -74 -90
-171 -114 -215 -107 -199 -170 -318 -215 -405 -16 -30 -31 -57 -34 -60 -3 -3
-17 -27 -32 -55 -98 -186 -128 -251 -128 -278 0 -36 30 -101 62 -137 13 -14
46 -52 73 -85 28 -33 55 -65 60 -71 6 -6 30 -35 55 -64 25 -29 50 -58 55 -64
6 -6 44 -51 85 -101 41 -49 84 -101 97 -115 12 -14 53 -61 90 -106 37 -44 87
-102 110 -130 23 -27 50 -59 60 -70 10 -12 34 -41 53 -64 19 -23 42 -50 50
-60 83 -95 128 -146 142 -159 37 -36 122 -149 144 -193 56 -110 22 -305 -64
-366 l-28 -20 -43 22 c-30 14 -58 41 -86 81 -23 33 -42 63 -43 68 -5 22 -147
219 -206 285 -104 116 -188 192 -356 325 -44 34 -139 97 -148 97 -6 0 -12 4
-14 8 -7 20 -512 289 -526 282 -12 -7 -104 71 -120 100 -37 69 -31 90 128 400
36 69 65 127 66 130 0 3 5 16 11 30 49 115 88 223 98 275 28 134 38 195 32
195 -3 0 -66 -93 -140 -207 -140 -213 -172 -263 -387 -595 -68 -106 -128 -194
-132 -196 -4 -2 -8 -8 -8 -14 0 -5 -13 -28 -28 -51 -43 -64 -44 -71 -9 -92 67
-39 168 -167 208 -263 11 -26 24 -56 29 -67 5 -11 25 -74 44 -140 66 -229 169
-368 336 -454 120 -63 194 -78 392 -81 63 -2 126 -9 152 -17 54 -18 124 -77
147 -124 30 -61 49 -107 49 -118 0 -6 6 -30 14 -53 8 -24 17 -56 20 -73 3 -16
21 -95 41 -175 20 -80 37 -152 39 -160 2 -8 6 -26 9 -40 13 -56 38 -166 41
-186 3 -12 14 -64 25 -115 11 -52 23 -110 26 -129 3 -19 10 -53 15 -75 5 -22
11 -56 15 -75 3 -19 10 -55 15 -80 5 -25 12 -58 14 -75 3 -16 7 -39 9 -50 3
-11 8 -42 11 -69 4 -27 9 -52 11 -56 2 -3 6 -24 9 -46 3 -21 7 -50 10 -64 6
-31 16 -94 22 -140 2 -19 7 -46 9 -60 3 -14 7 -38 10 -55 14 -93 17 -113 21
-145 2 -19 7 -46 10 -60 3 -14 7 -74 9 -133 3 -80 0 -118 -12 -145 -29 -71
-85 -113 -154 -114 -69 -1 -98 44 -115 177 -12 99 -14 107 -21 118 -3 6 -10
27 -14 46 -9 45 -51 202 -90 341 -101 355 -220 699 -319 925 -8 17 -14 32 -15
35 -3 17 -196 413 -204 420 -3 3 -17 25 -30 50 -39 72 -137 211 -184 260 -142
147 -275 202 -472 195 -55 -1 -111 -6 -125 -9 -14 -3 -37 -8 -52 -11 -59 -11
-84 -17 -157 -37 -85 -24 -105 -25 -139 -6 -53 28 -232 468 -281 688 -7 30
-15 62 -18 70 -3 8 -7 22 -9 30 -13 68 -26 140 -29 165 -2 17 -4 30 -5 30 -2
0 -5 33 -14 142 l-8 93 52 117 c47 106 188 394 244 498 73 136 243 424 257
435 3 3 12 16 19 29 7 14 17 30 22 35 5 6 23 34 41 61 18 28 52 77 76 110 116
157 156 211 166 221 5 7 17 20 25 30 232 286 488 545 740 748 25 20 52 42 60
50 8 7 53 41 100 75 47 34 93 69 102 76 27 22 329 220 368 241 19 10 37 21 40
24 3 3 37 21 75 40 39 19 73 40 77 45 4 6 8 7 8 2 0 -4 21 4 48 17 60 30 141
61 212 80 53 15 77 20 150 32 19 3 36 7 38 9 5 4 263 -3 282 -8z m-1808 -3497
c37 -10 134 -56 148 -70 3 -3 32 -27 65 -55 69 -58 155 -140 155 -147 0 -4
-111 22 -158 37 -7 3 -16 5 -20 5 -31 5 -148 80 -177 114 -19 22 -40 47 -46
54 -5 7 -17 29 -25 49 -14 32 -14 35 0 30 8 -3 34 -11 58 -17z m3284 -44 c-36
-62 -96 -118 -162 -151 -56 -28 -235 -86 -243 -79 -6 6 101 109 172 167 87 71
228 136 251 116 5 -4 -3 -28 -18 -53z"/>
</g>
</svg>
